<svg width="26" height="26" viewBox="0 0 26 26" fill="none" xmlns="http://www.w3.org/2000/svg">
<path d="M24.9998 22.5819V18.969C25.0145 18.3783 24.8111 17.8028 24.4283 17.352C23.3491 16.0808 19.6478 15.2678 18.1806 15.58C17.037 15.8235 16.2367 16.9718 15.4544 17.7526C12.4334 16.038 9.93194 13.5416 8.2141 10.5264C8.99636 9.74574 10.147 8.94716 10.391 7.80572C10.7034 6.3437 9.89134 2.66599 8.62892 1.58245C8.18488 1.20133 7.61712 0.994357 7.03149 1.00012H3.4113C2.03192 1.00141 0.884321 2.2386 1.00991 3.62559C1.00048 15.58 10.3339 25 22.3691 24.9906C23.7635 25.1164 25.0054 23.9631 24.9998 22.5819Z" stroke="#000638" stroke-width="2" stroke-linecap="round" stroke-linejoin="round"/>
</svg>
